# xmcd
#
# Track frame offsets:
#   150
#   12002
#   31224
#   42085
#   53124
#   67750
#   80048
#   96081
#   107489
#   117780
#   131738
#   147252
#   158628
#   174176
#   191428
#   204464
#   219322
#   233458
#   246372
#   266728
#   283837
#   301463
#   317925
#   333757
#
# Disc length: 4711 seconds
#
# Revision: 0
# Processed by: cddbd v1.5.2PL0 Copyright (c) Steve Scherf et al.
# Submitted via: uFREEDB 1.6.2
#
DISCID=44126518
DTITLE=Pat Boone - Greatest Hits
DYEAR=1900
DGENRE=Country
TTITLE0=Keith Urban     -     Tonight I Wanna Cry
TTITLE1=Keith Urban     -     Tonight I Wanna Cry
TTITLE2=Keith Urban     -     Tonight I Wanna Cry
TTITLE3=Keith Urban     -     Tonight I Wanna Cry
TTITLE4=Keith Urban     -     Tonight I Wanna Cry
TTITLE5=Keith Urban     -     Tonight I Wanna Cry
TTITLE6=Keith Urban     -     Tonight I Wanna Cry
TTITLE7=Keith Urban     -     Tonight I Wanna Cry
TTITLE8=Keith Urban     -     Tonight I Wanna Cry
TTITLE9=Keith Urban     -     Tonight I Wanna Cry
TTITLE10=Keith Urban     -     Tonight I Wanna Cry
TTITLE11=Keith Urban     -     Tonight I Wanna Cry
TTITLE12=Keith Urban     -     Tonight I Wanna Cry
TTITLE13=Keith Urban     -     Tonight I Wanna Cry
TTITLE14=Keith Urban     -     Tonight I Wanna Cry
TTITLE15=Keith Urban     -     Tonight I Wanna Cry
TTITLE16=Keith Urban     -     Tonight I Wanna Cry
TTITLE17=Keith Urban     -     Tonight I Wanna Cry
TTITLE18=Keith Urban     -     Tonight I Wanna Cry
TTITLE19=Keith Urban     -     Tonight I Wanna Cry
TTITLE20=Keith Urban     -     Tonight I Wanna Cry
TTITLE21=Keith Urban     -     Tonight I Wanna Cry
TTITLE22=Keith Urban     -     Tonight I Wanna Cry
TTITLE23=Keith Urban     -     Tonight I Wanna Cry
EXTD=®-Another HQ Kuntry Rip-®
EXTT0=
EXTT1=
EXTT2=
EXTT3=
EXTT4=
EXTT5=
EXTT6=
EXTT7=
EXTT8=
EXTT9=
EXTT10=
EXTT11=
EXTT12=
EXTT13=
EXTT14=
EXTT15=
EXTT16=
EXTT17=
EXTT18=
EXTT19=
EXTT20=
EXTT21=
EXTT22=
EXTT23=
PLAYORDER=
